<svg xmlns="http://www.w3.org/2000/svg" width="$daisy.size$" height="$daisy.size$">
    <g id="to-sun" fill="tomato">
        <ellipse rx="!{$daisy.size$ * 9 / 40}!" ry="!{$daisy.size$ * 35 / 400}!" cx="!{$daisy.size$ * 3 / 4}!" cy="!{$daisy.size$ / 2}!" transform="translate(0 0),rotate(0 !{$daisy.size$ / 2}! !{$daisy.size$ / 2}!)" stroke="black" stroke-width="!{$daisy.size$ / 40}!" fill="$daisy.color.outer$" />
        <ellipse rx="!{$daisy.size$ * 9 / 40}!" ry="!{$daisy.size$ * 35 / 400}!" cx="!{$daisy.size$ * 3 / 4}!" cy="!{$daisy.size$ / 2}!" transform="translate(0 0),rotate(60 !{$daisy.size$ / 2}! !{$daisy.size$ / 2}!)" stroke="black" stroke-width="!{$daisy.size$ / 40}!" fill="$daisy.color.outer$" />
        <ellipse rx="!{$daisy.size$ * 9 / 40}!" ry="!{$daisy.size$ * 35 / 400}!" cx="!{$daisy.size$ * 3 / 4}!" cy="!{$daisy.size$ / 2}!" transform="translate(0 0),rotate(120 !{$daisy.size$ / 2}! !{$daisy.size$ / 2}!)" stroke="black" stroke-width="!{$daisy.size$ / 40}!" fill="$daisy.color.outer$" />
        <ellipse rx="!{$daisy.size$ * 9 / 40}!" ry="!{$daisy.size$ * 35 / 400}!" cx="!{$daisy.size$ * 3 / 4}!" cy="!{$daisy.size$ / 2}!" transform="translate(0 0),rotate(180 !{$daisy.size$ / 2}! !{$daisy.size$ / 2}!)" stroke="black" stroke-width="!{$daisy.size$ / 40}!" fill="$daisy.color.outer$" />
        <ellipse rx="!{$daisy.size$ * 9 / 40}!" ry="!{$daisy.size$ * 35 / 400}!" cx="!{$daisy.size$ * 3 / 4}!" cy="!{$daisy.size$ / 2}!" transform="translate(0 0),rotate(240 !{$daisy.size$ / 2}! !{$daisy.size$ / 2}!)" stroke="black" stroke-width="!{$daisy.size$ / 40}!" fill="$daisy.color.outer$" />
        <ellipse rx="!{$daisy.size$ * 9 / 40}!" ry="!{$daisy.size$ * 35 / 400}!" cx="!{$daisy.size$ * 3 / 4}!" cy="!{$daisy.size$ / 2}!" transform="translate(0 0),rotate(300 !{$daisy.size$ / 2}! !{$daisy.size$ / 2}!)" stroke="black" stroke-width="!{$daisy.size$ / 40}!" fill="$daisy.color.outer$" />
    </g>
    <circle cx="!{$daisy.size$ / 2}!" cy="!{$daisy.size$ / 2}!" r="!{$daisy.size$ / 8}!" stroke="black" stroke-width="!{$daisy.size$ / 40}!" fill="$daisy.color.inner$" />
</svg>
